<?xml version="1.0" encoding="UTF-8" standalone="no"?>
<!-- Created with Inkscape (http://www.inkscape.org/) -->

<svg
   width="210mm"
   height="297mm"
   viewBox="0 0 210 297"
   version="1.1"
   id="svg1"
   xml:space="preserve"
   inkscape:version="1.4 (86a8ad7, 2024-10-11)"
   sodipodi:docname="catty.svg"
   xmlns:inkscape="http://www.inkscape.org/namespaces/inkscape"
   xmlns:sodipodi="http://sodipodi.sourceforge.net/DTD/sodipodi-0.dtd"
   xmlns="http://www.w3.org/2000/svg"
   xmlns:svg="http://www.w3.org/2000/svg"><sodipodi:namedview
     id="namedview1"
     pagecolor="#ffffff"
     bordercolor="#666666"
     borderopacity="1.0"
     inkscape:showpageshadow="2"
     inkscape:pageopacity="0.0"
     inkscape:pagecheckerboard="0"
     inkscape:deskcolor="#d1d1d1"
     inkscape:document-units="mm"
     showguides="false"
     inkscape:zoom="2.0535659"
     inkscape:cx="411.96633"
     inkscape:cy="640.59304"
     inkscape:window-width="1920"
     inkscape:window-height="1017"
     inkscape:window-x="-8"
     inkscape:window-y="-8"
     inkscape:window-maximized="1"
     inkscape:current-layer="layer1-24" /><defs
     id="defs1"><filter
       style="color-interpolation-filters:sRGB;"
       inkscape:label="Brilliance"
       id="filter50"
       x="-0.0017093303"
       y="-0.0023481798"
       width="1.0034103"
       height="1.0037892"><feColorMatrix
         values="2 -0.5 -0.5 0 0 -0.5 2 -0.5 0 0 -0.5 -0.5 2 0 0 0 0 0 1 0 "
         id="feColorMatrix50" /></filter><filter
       style="color-interpolation-filters:sRGB;"
       inkscape:label="Lightness-Contrast"
       id="filter585"
       x="-0.054694196"
       y="-0.13599374"
       width="1.1081366"
       height="1.2247354"><feColorMatrix
         values="1 0 0 0 -0 0 1 0 0 -0 0 0 1 0 -0 0 0 0 1 0"
         id="feColorMatrix585"
         result="fbSourceGraphic" /><feColorMatrix
         result="fbSourceGraphicAlpha"
         in="fbSourceGraphic"
         values="0 0 0 -1 0 0 0 0 -1 0 0 0 0 -1 0 0 0 0 1 0"
         id="feColorMatrix587" /><feColorMatrix
         id="feColorMatrix588"
         values="1 0 0 0 -0 0 1 0 0 -0 0 0 1 0 -0 0 0 0 1 0"
         in="fbSourceGraphic" /></filter><filter
       style="color-interpolation-filters:sRGB;"
       inkscape:label="Lightness-Contrast"
       id="filter586"
       x="-0.0053784741"
       y="-0.0023241692"
       width="1.0107541"
       height="1.004708"><feColorMatrix
         values="1 0 0 0 -0 0 1 0 0 -0 0 0 1 0 -0 0 0 0 1 0"
         id="feColorMatrix586"
         result="fbSourceGraphic" /><feColorMatrix
         result="fbSourceGraphicAlpha"
         in="fbSourceGraphic"
         values="0 0 0 -1 0 0 0 0 -1 0 0 0 0 -1 0 0 0 0 1 0"
         id="feColorMatrix589" /><feColorMatrix
         id="feColorMatrix590"
         values="1 0 0 0 -0 0 1 0 0 -0 0 0 1 0 -0 0 0 0 1 0"
         in="fbSourceGraphic" /></filter></defs><g
     inkscape:label="Layer 1"
     inkscape:groupmode="layer"
     id="layer1"><g
       inkscape:label="Layer 1"
       id="layer1-24"
       transform="translate(16.430954,-24.233821)"><g
         id="g802"><g
           inkscape:label="Layer 1"
           id="layer1-2"
           transform="translate(43.701413,-61.467171)"
           style="filter:url(#filter585)" /></g><g
         id="g951"><g
           id="g55"
           style="filter:url(#filter585)"
           transform="translate(43.701413,-61.467171)"><path
             style="fill:#f2f2f2;stroke:#000000;stroke-width:0.111;stroke-linecap:butt;stroke-linejoin:miter;stroke-dasharray:none;stroke-opacity:1;filter:url(#filter50)"
             d="m 25.164062,249.22521 5.282481,3.28544 6.05552,0.70863 7.79488,-1.61051 3.41428,-2.8345 c 0,0 1.64394,3.88674 2.38356,5.86226 0.55715,1.48816 1.54609,4.50943 1.54609,4.50943 0,0 0.39895,8.16165 -0.45094,12.11105 -0.9463,4.39735 -5.08922,12.49757 -5.08922,12.49757 0,0 -1.06805,1.90505 -1.93261,2.5124 -0.46122,0.32401 -1.05604,0.41407 -1.61052,0.51536 -1.22682,0.22412 -2.69113,0.87355 -3.73638,0.19327 -0.65512,-0.42637 -0.21232,-1.72108 -0.83747,-2.1903 -1.93666,-1.4536 -4.21393,-1.04079 -5.9911,-0.12884 -0.81078,0.41605 -0.73238,1.84443 -1.54609,2.25472 -0.53722,0.27087 -1.202438,-0.0453 -1.803776,-0.0644 -0.772955,-0.0245 -1.611699,0.248 -2.319137,-0.0644 -1.50038,-0.66255 -3.414284,-3.54312 -3.414284,-3.54312 0,0 -3.073374,-6.39876 -3.607546,-9.85634 -0.66621,-4.31224 0.579785,-13.07735 0.579785,-13.07735 0,0 2.284426,-4.9983 3.478705,-7.47277 0.584387,-1.21081 1.803772,-3.60757 1.803772,-3.60757 z"
             id="path7"
             sodipodi:nodetypes="cccccacacaaassaaacacacc" /></g><path
           style="filter:url(#filter585);fill:#f9f9f9;stroke:#000000;stroke-width:0.11122211;stroke-linecap:butt;stroke-linejoin:miter;stroke-dasharray:none;stroke-opacity:1"
           d="m 24.102346,243.60173 c 0,0 -0.09903,3.60048 0.814363,5.03406 1.371418,2.15245 3.894431,3.55173 6.333935,4.30183 3.344225,1.02828 7.086938,0.78608 10.496231,0 1.765308,-0.40703 4.886179,-2.37973 4.886179,-2.37973 0,0 2.411816,-2.32663 2.985997,-3.84419 0.508448,-1.34382 -0.01747,-2.89438 0.271454,-4.30183 0.162804,-0.79307 0.763524,-1.48021 0.814364,-2.28822 0.053,-0.84174 -0.11562,-1.74412 -0.54291,-2.47127 -0.653,-1.11127 -2.696569,-1.28931 -2.895512,-2.56279 -0.05504,-0.3523 0.302384,-0.81449 0.546626,-0.91952 3.874986,-1.66638 -8.422508,1.04342 -12.127437,2.93315 -1.801242,0.91874 -3.035688,2.67425 -4.615964,3.93571 -1.235537,0.98627 -2.279894,2.40442 -3.800359,2.83739 -1.019102,0.2902 -3.166967,-0.27459 -3.166967,-0.27459 z"
           id="path34"
           sodipodi:nodetypes="caaacaaaaasaaac"
           transform="translate(43.701413,-61.467171)" /><path
           style="filter:url(#filter585);fill:#d40000;stroke:#000000;stroke-width:0.111;stroke-linecap:butt;stroke-linejoin:miter;stroke-dasharray:none;stroke-opacity:1"
           d="m 30.362131,218.65403 c 2.01793,-0.856 4.3789,-0.26019 6.57088,-0.25769 2.71474,0.003 3.0032,7.7963 5.41132,7.2151 3.78336,-0.91312 6.89767,-1.60082 9.92075,-0.25768 1.08554,0.4823 2.10569,0.94001 2.31914,2.70565 0.34542,2.85727 -3.42783,5.62218 -6.57089,6.57089 -5.22236,1.57634 -9.99778,2.56999 -14.55902,4.89596 -2.93541,1.49689 -4.78114,5.33957 -8.05256,5.73342 -2.82273,0.33984 -5.56262,-3.33755 -7.92372,-3.1566 -2.9975,0.22972 5.41132,-7.21509 5.41132,-7.21509 l 0.38653,-2.70567 c 0,0 -2.16696,-0.30877 -2.31914,-1.15956 -0.16585,-0.92719 1.93261,-2.06146 1.93261,-2.06146 0,0 1.62058,0.29974 1.41725,-0.12884 -0.76289,-1.60801 -0.30397,-4.63309 0.12884,-4.50943 0,0 3.40995,-4.60142 5.92669,-5.669 z"
           id="path1"
           sodipodi:nodetypes="assassaasccacsca"
           transform="translate(43.701413,-61.467171)" /><path
           style="filter:url(#filter585);fill:#88aa00;stroke:#000000;stroke-width:0.111111;stroke-linecap:butt;stroke-linejoin:miter;stroke-dasharray:none;stroke-opacity:1"
           d="m 27.374567,231.9567 0.890165,4.03397 c 0,0 -1.515338,2.21276 -0.667625,2.54777 0.999039,0.39479 1.66906,-2.65393 1.66906,-2.65393 v -5.2017 c 0,0 2.564797,0.19064 3.671928,-0.31847 1.063415,-0.489 2.18951,-1.34268 2.44795,-2.44161 0.15407,-0.6551 -0.0712,-1.55438 -0.66762,-1.91082 -0.729044,-0.43575 -1.776585,-0.0224 -2.559224,0.31847 -1.625226,0.70767 -2.335859,2.79132 -4.005739,3.39702 -0.416028,0.15092 -1.335248,0 -1.335248,0 0,0 -0.509856,0.23424 -0.778895,0.21231 -1.107435,-0.0904 -1.893244,-1.40873 -3.004304,-1.38004 -0.84629,0.0219 -1.750075,0.49937 -2.22541,1.16773 -0.335788,0.47215 -0.555323,1.22442 -0.222541,1.69851 0.470628,0.67046 1.602173,0.63335 2.447951,0.63695 0.728698,0.003 2.11414,-0.53079 2.11414,-0.53079 0,0 -0.770207,1.45151 -1.001435,2.22929 -0.480918,1.61767 -1.467415,3.44154 -0.778893,4.98938 0.24929,0.56044 0.990387,1.34016 1.557787,1.06158 1.088324,-0.53432 0,-3.50319 0,-3.50319 l 1.669059,-4.56474 z"
           id="path2"
           sodipodi:nodetypes="ccaccaaaaacaaaaacaaaccc"
           transform="translate(43.701413,-61.467171)" /><path
           style="filter:url(#filter585);fill:#28220b;stroke:#000000;stroke-width:0.011;stroke-linecap:butt;stroke-linejoin:miter;stroke-dasharray:none;stroke-opacity:1"
           d="m 41.772134,244.0772 0.386251,0.0966 0.708131,-0.77251 1.770329,-0.54719 h 2.15658 l -0.0644,-0.35406 -2.3819,-0.0966 -1.577196,0.48282 -1.062196,0.64375 z"
           id="path10"
           transform="translate(43.701413,-61.467171)" /><path
           style="filter:url(#filter585);fill:#28220b;stroke:#000000;stroke-width:0.0118362;stroke-linecap:butt;stroke-linejoin:miter;stroke-dasharray:none;stroke-opacity:1"
           d="m 32.8242,244.49538 0.111918,-0.5466 -2.014578,-0.0965 -1.343049,-0.25723 -0.708831,0.28938 0.522296,0.28939 1.566892,0.25722 c 0.609343,0.0965 2.7699,0.0642 1.939967,0.0643 z"
           id="path11"
           sodipodi:nodetypes="cccccccsc"
           transform="translate(43.701413,-61.467171)" /><path
           style="filter:url(#filter585);fill:#1a1a1a;stroke:#000000;stroke-width:0.264583px;stroke-linecap:butt;stroke-linejoin:miter;stroke-opacity:1"
           d="m 37.400215,247.96234 c -0.405831,0.44021 -0.618347,0.88041 -1.417251,1.32062 0,0 -0.08803,0.22061 0,0.16105 0.373075,-0.25241 1.526149,-1.33535 1.546092,-1.15957 0,0 0.605497,0.76198 0.837467,1.06294 0.08001,0.1038 0.06442,-0.0966 0.06442,-0.0966 z"
           id="path12"
           sodipodi:nodetypes="ccscscc"
           transform="translate(43.701413,-61.467171)" /><path
           style="filter:url(#filter585);fill:#e9afaf;stroke:#000000;stroke-width:0.011;stroke-linecap:butt;stroke-linejoin:miter;stroke-dasharray:none;stroke-opacity:1"
           d="m 36.272857,247.47458 c 0.386395,0.002 1.599671,0.17284 2.158085,-0.0322 0.480094,-0.17628 -0.68083,0.98859 -1.191779,0.96631 -0.447571,-0.0195 -1.414295,-0.93664 -0.966306,-0.93411 z"
           id="path6"
           sodipodi:nodetypes="ssas"
           transform="translate(43.701413,-61.467171)" /><path
           style="fill:#88aa00;stroke:#000000;stroke-width:0.113;stroke-linecap:butt;stroke-linejoin:miter;stroke-dasharray:none;stroke-opacity:1;filter:url(#filter586)"
           d="m 92.669448,173.24311 c -0.86026,2.02718 1.37753,2.12558 1.85515,3.25689 0.26703,0.6325 0.38935,1.2995 0.55653,1.95412 0.2548,0.9977 0.867,1.99886 0.68022,3.00637 -0.17256,0.93082 -1.37332,1.58341 -1.60779,2.5053 -0.34207,1.34497 0.22557,3.10311 0.37103,4.1087 0.0926,0.64031 -0.61206,0.98198 -0.55654,1.50317 0.107,1.00463 1.045,1.83358 1.66963,2.70573 0.85797,1.19796 1.13983,3.3553 2.84455,3.45732 0.58216,0.0348 1.17493,-1.05222 1.17493,-1.05222 l -0.74206,-0.45097 c 0,0 -0.2543,0.6541 -0.55655,0.60128 -0.37153,-0.065 -0.44464,-0.63868 -0.24735,-0.90192 0.3322,-0.44322 1.26085,-0.59327 1.85515,-0.40084 0.695952,0.22534 1.150862,0.94633 1.174932,1.55329 0.0269,0.67953 -0.4519,1.45884 -1.174932,1.80382 -0.85277,0.40685 -2.11871,0.3612 -2.96824,-0.0501 -0.93497,-0.45267 -1.10915,-1.52029 -1.60778,-2.30487 -0.46863,-0.73738 -0.88302,-1.4968 -1.2986,-2.25478 -0.40879,-0.74556 -0.82713,-1.48914 -1.17493,-2.25476 -0.14187,-0.3123 -0.38249,-0.61937 -0.37103,-0.95202 0.0228,-0.66048 0.74168,-1.20089 0.86574,-1.85392 0.223,-1.1739 -0.24735,-3.55753 -0.24735,-3.55753 l 1.42227,-2.80593 -0.80389,-2.10446 -0.18552,-1.85392 c -0.93466,-0.86658 -2.95497,-2.19154 -2.96822,-3.30699 0,0 0.0573,-0.40803 0.24735,-0.50108 0.51433,-0.25185 2.06671,-0.49396 1.7933,0.15033 z"
           id="path9"
           sodipodi:nodetypes="saaaasaaaccaaaaasaaaaacccccass" /><path
           style="fill:#e3dbdb;stroke:#000000;stroke-width:0.011;stroke-linecap:butt;stroke-linejoin:miter;stroke-dasharray:none;stroke-opacity:1"
           d="m 72.035881,243.81765 -0.773044,1.93261 -0.427784,0.66657 0.473304,0.17781 0.420062,0.11769 0.307462,-0.83321 0.773046,-1.48167 z"
           id="path8"
           sodipodi:nodetypes="cccccccc" /></g></g></g></svg>
